<svg xmlns="http://www.w3.org/2000/svg" width="45" height="45"><g style="fill:none;fill-opacity:1;fill-rule:evenodd;stroke:#000;stroke-width:1.5;stroke-linecap:round;stroke-linejoin:round;stroke-miterlimit:4;stroke-dasharray:none;stroke-opacity:1"><path d="M22.5 11.63V6M20 8h5" style="fill:none;stroke:#000;stroke-linejoin:miter"/><path d="M22.5 25s4.5-7.5 3-10.5c0 0-1-2.5-3-2.5s-3 2.5-3 2.5c-1.5 3 3 10.5 3 10.5" style="fill:#fff;stroke:#000;stroke-linecap:butt;stroke-linejoin:miter"/><path d="M12.5 37c5.5 3.5 14.5 3.5 20 0v-7s9-4.5 6-10.5c-4-6.5-13.5-3.5-16 4V27v-3.5c-2.5-7.5-12-10.5-16-4-3 6 6 10.5 6 10.5v7" style="fill:#fff;stroke:#000"/><path d="M12.5 30c5.5-3 14.5-3 20 0M12.5 33.5c5.5-3 14.5-3 20 0M12.5 37c5.5-3 14.5-3 20 0" style="fill:none;stroke:#000"/></g></svg>