<svg xmlns="http://www.w3.org/2000/svg" xmlns:xlink="http://www.w3.org/1999/xlink"><symbol viewBox="0 0 45 45" id="db" xmlns="http://www.w3.org/2000/svg"><g fill="none" fill-rule="evenodd" stroke="#000" stroke-width="1.5" stroke-linecap="round" stroke-linejoin="round"><g fill="#000" stroke-linecap="butt"><path d="M9 36.6c3.39-.97 10.11.43 13.5-2 3.39 2.43 10.11 1.03 13.5 2 0 0 1.65.54 3 2-.68.97-1.65.99-3 .5-3.39-.97-10.11.46-13.5-1-3.39 1.46-10.11.03-13.5 1-1.35.49-2.32.47-3-.5 1.35-1.46 3-2 3-2z"/><path d="M15 32.6c2.5 2.5 12.5 2.5 15 0 .5-1.5 0-2 0-2 0-2.5-2.5-4-2.5-4 5.5-1.5 6-11.5-5-15.5-11 4-10.5 14-5 15.5 0 0-2.5 1.5-2.5 4 0 0-.5.5 0 2z"/><path d="M25 8.6a2.5 2.5 0 11-5 0 2.5 2.5 0 115 0z"/></g><path d="M17.5 26.6h10m-12.5 4h15m-7.5-14.5v5M20 18.6h5" stroke="#fff" stroke-linejoin="miter"/></g></symbol><symbol viewBox="0 0 45 45" id="dk" xmlns="http://www.w3.org/2000/svg"><g fill="none" fill-rule="evenodd" stroke="#000" stroke-width="1.5" stroke-linecap="round" stroke-linejoin="round"><path d="M22.5 11.63V6" stroke-linejoin="miter"/><path d="M22.5 25s4.5-7.5 3-10.5c0 0-1-2.5-3-2.5s-3 2.5-3 2.5c-1.5 3 3 10.5 3 10.5" fill="#000" stroke-linecap="butt" stroke-linejoin="miter"/><path d="M12.5 37c5.5 3.5 14.5 3.5 20 0v-7s9-4.5 6-10.5c-4-6.5-13.5-3.5-16 4V27v-3.5c-2.5-7.5-12-10.5-16-4-3 6 6 10.5 6 10.5v7" fill="#000"/><path d="M20 8h5" stroke-linejoin="miter"/><path d="M32 29.5s8.5-4 6.03-9.65C34.15 14 25 18 22.5 24.5v2.1-2.1C20 18 10.85 14 6.97 19.85 4.5 25.5 13 29.5 13 29.5" stroke="#fff"/><path d="M12.5 30c5.5-3 14.5-3 20 0m-20 3.5c5.5-3 14.5-3 20 0m-20 3.5c5.5-3 14.5-3 20 0" stroke="#fff"/></g></symbol><symbol viewBox="0 0 45 45" id="dn" xmlns="http://www.w3.org/2000/svg"><g fill="none" fill-rule="evenodd" stroke="#000" stroke-width="1.5" stroke-linecap="round" stroke-linejoin="round"><path d="M22 10.3c10.5 1 16.5 8 16 29H15c0-9 10-6.5 8-21" fill="#000"/><path d="M24 18.3c.38 2.91-5.55 7.37-8 9-3 2-2.82 4.34-5 4-1.042-.94 1.41-3.04 0-3-1 0 .19 1.23-1 2-1 0-4.003 1-4-4 0-2 6-12 6-12s1.89-1.9 2-3.5c-.73-.994-.5-2-.5-3 1-1 3 2.5 3 2.5h2s.78-1.992 2.5-3c1 0 1 3 1 3" fill="#000"/><path d="M9.5 25.8a.5.5 0 11-1 0 .5.5 0 111 0z" fill="#fff" stroke="#fff"/><path d="M14.933 16.05a.5 1.5 30 11-.866-.5.5 1.5 30 11.866.5z" fill="#fff" stroke="#fff" stroke-width="1.49997"/><path d="M24.55 10.7l-.45 1.45.5.15c3.15 1 5.65 2.49 7.9 6.75s3.25 10.31 2.75 20.25l-.05.5h2.25l.05-.5c.5-10.06-.88-16.85-3.25-21.34-2.37-4.49-5.79-6.64-9.19-7.16l-.51-.1z" fill="#fff" stroke="none"/></g></symbol><symbol viewBox="0 0 45 45" id="dp" xmlns="http://www.w3.org/2000/svg"><path d="M22.5 9c-2.21 0-4 1.79-4 4 0 .89.29 1.71.78 2.38C17.33 16.5 16 18.59 16 21c0 2.03.94 3.84 2.41 5.03-3 1.06-7.41 5.55-7.41 13.47h23c0-7.92-4.41-12.41-7.41-13.47 1.47-1.19 2.41-3 2.41-5.03 0-2.41-1.33-4.5-3.28-5.62.49-.67.78-1.49.78-2.38 0-2.21-1.79-4-4-4z" stroke="#000" stroke-width="1.5" stroke-linecap="round"/></symbol><symbol viewBox="0 0 45 45" id="dq" xmlns="http://www.w3.org/2000/svg"><g stroke="#000" stroke-width="1.5" stroke-linecap="round" stroke-linejoin="round"><path d="M9 26c8.5-1.5 21-1.5 27 0l2.5-12.5L31 25l-.3-14.1-5.2 13.6-3-14.5-3 14.5-5.2-13.6L14 25 6.5 13.5 9 26z" stroke-linecap="butt"/><path d="M9 26c0 2 1.5 2 2.5 4 1 1.5 1 1 .5 3.5-1.5 1-1 2.5-1 2.5-1.5 1.5 0 2.5 0 2.5 6.5 1 16.5 1 23 0 0 0 1.5-1 0-2.5 0 0 .5-1.5-1-2.5-.5-2.5-.5-2 .5-3.5 1-2 2.5-2 2.5-4-8.5-1.5-18.5-1.5-27 0zM11.5 30c3.5-1 18.5-1 22 0M12 33.5c6-1 15-1 21 0"/><circle cx="6" cy="12" r="2"/><circle cx="14" cy="9" r="2"/><circle cx="22.5" cy="8" r="2"/><circle cx="31" cy="9" r="2"/><circle cx="39" cy="12" r="2"/><path d="M11 38.5a35 35 1 0023 0" fill="none" stroke-linecap="butt"/><g fill="none" stroke="#fff"><path d="M11 29a35 35 1 0123 0M12.5 31.5h20M11.5 34.5a35 35 1 0022 0M10.5 37.5a35 35 1 0024 0"/></g></g></symbol><symbol viewBox="0 0 45 45" id="dr" xmlns="http://www.w3.org/2000/svg"><g fill-rule="evenodd" stroke="#000" stroke-width="1.5" stroke-linecap="round" stroke-linejoin="round"><path d="M9 39.3h27v-3H9v3zM12.5 32.3l1.5-2.5h17l1.5 2.5h-20zM12 36.3v-4h21v4H12z" stroke-linecap="butt"/><path d="M14 29.8v-13h17v13H14z" stroke-linecap="butt" stroke-linejoin="miter"/><path d="M14 16.8l-3-2.5h23l-3 2.5H14zM11 14.3v-5h4v2h5v-2h5v2h5v-2h4v5H11z" stroke-linecap="butt"/><path d="M12 35.8h21M13 31.8h19M14 29.8h17M14 16.8h17M11 14.3h23" fill="none" stroke="#fff" stroke-width="1" stroke-linejoin="miter"/></g></symbol><symbol viewBox="0 0 45 45" id="lb" xmlns="http://www.w3.org/2000/svg"><g transform="translate(0 .6)" fill="none" fill-rule="evenodd" stroke="#000" stroke-width="1.5" stroke-linecap="round" stroke-linejoin="round">><g fill="#fff" stroke-linecap="butt"><path d="M9 36c3.39-.97 10.11.43 13.5-2 3.39 2.43 10.11 1.03 13.5 2 0 0 1.65.54 3 2-.68.97-1.65.99-3 .5-3.39-.97-10.11.46-13.5-1-3.39 1.46-10.11.03-13.5 1-1.35.49-2.32.47-3-.5 1.35-1.46 3-2 3-2z"/><path d="M15 32c2.5 2.5 12.5 2.5 15 0 .5-1.5 0-2 0-2 0-2.5-2.5-4-2.5-4 5.5-1.5 6-11.5-5-15.5-11 4-10.5 14-5 15.5 0 0-2.5 1.5-2.5 4 0 0-.5.5 0 2z"/><path d="M25 8a2.5 2.5 0 11-5 0 2.5 2.5 0 115 0z"/></g><path d="M17.5 26h10M15 30h15m-7.5-14.5v5M20 18h5" stroke-linejoin="miter"/></g></symbol><symbol viewBox="0 0 45 45" id="lk" xmlns="http://www.w3.org/2000/svg"><g fill="none" fill-rule="evenodd" stroke="#000" stroke-width="1.5" stroke-linecap="round" stroke-linejoin="round"><path d="M22.5 11.63V6M20 8h5" stroke-linejoin="miter"/><path d="M22.5 25s4.5-7.5 3-10.5c0 0-1-2.5-3-2.5s-3 2.5-3 2.5c-1.5 3 3 10.5 3 10.5" fill="#fff" stroke-linecap="butt" stroke-linejoin="miter"/><path d="M12.5 37c5.5 3.5 14.5 3.5 20 0v-7s9-4.5 6-10.5c-4-6.5-13.5-3.5-16 4V27v-3.5c-2.5-7.5-12-10.5-16-4-3 6 6 10.5 6 10.5v7" fill="#fff"/><path d="M12.5 30c5.5-3 14.5-3 20 0M12.5 33.5c5.5-3 14.5-3 20 0M12.5 37c5.5-3 14.5-3 20 0"/></g></symbol><symbol viewBox="0 0 45 45" id="ln" xmlns="http://www.w3.org/2000/svg"><g fill="none" fill-rule="evenodd" stroke="#000" stroke-width="1.5" stroke-linecap="round" stroke-linejoin="round"><path d="M22 10.3c10.5 1 16.5 8 16 29H15c0-9 10-6.5 8-21" fill="#fff"/><path d="M24 18.3c.38 2.91-5.55 7.37-8 9-3 2-2.82 4.34-5 4-1.042-.94 1.41-3.04 0-3-1 0 .19 1.23-1 2-1 0-4.003 1-4-4 0-2 6-12 6-12s1.89-1.9 2-3.5c-.73-.994-.5-2-.5-3 1-1 3 2.5 3 2.5h2s.78-1.992 2.5-3c1 0 1 3 1 3" fill="#fff"/><path d="M9.5 25.8a.5.5 0 11-1 0 .5.5 0 111 0z" fill="#000"/><path d="M14.933 16.05a.5 1.5 30 11-.866-.5.5 1.5 30 11.866.5z" fill="#000" stroke-width="1.49997"/></g></symbol><symbol viewBox="0 0 45 45" id="lp" xmlns="http://www.w3.org/2000/svg"><path d="M22.5 9c-2.21 0-4 1.79-4 4 0 .89.29 1.71.78 2.38C17.33 16.5 16 18.59 16 21c0 2.03.94 3.84 2.41 5.03-3 1.06-7.41 5.55-7.41 13.47h23c0-7.92-4.41-12.41-7.41-13.47 1.47-1.19 2.41-3 2.41-5.03 0-2.41-1.33-4.5-3.28-5.62.49-.67.78-1.49.78-2.38 0-2.21-1.79-4-4-4z" fill="#fff" stroke="#000" stroke-width="1.5" stroke-linecap="round"/></symbol><symbol viewBox="0 0 45 45" id="lq" xmlns="http://www.w3.org/2000/svg"><g fill="#fff" stroke="#000" stroke-width="1.5" stroke-linejoin="round"><path d="M9 26c8.5-1.5 21-1.5 27 0l2.5-12.5L31 25l-.3-14.1-5.2 13.6-3-14.5-3 14.5-5.2-13.6L14 25 6.5 13.5 9 26z"/><path d="M9 26c0 2 1.5 2 2.5 4 1 1.5 1 1 .5 3.5-1.5 1-1 2.5-1 2.5-1.5 1.5 0 2.5 0 2.5 6.5 1 16.5 1 23 0 0 0 1.5-1 0-2.5 0 0 .5-1.5-1-2.5-.5-2.5-.5-2 .5-3.5 1-2 2.5-2 2.5-4-8.5-1.5-18.5-1.5-27 0z"/><path d="M11.5 30c3.5-1 18.5-1 22 0M12 33.5c6-1 15-1 21 0" fill="none"/><circle cx="6" cy="12" r="2"/><circle cx="14" cy="9" r="2"/><circle cx="22.5" cy="8" r="2"/><circle cx="31" cy="9" r="2"/><circle cx="39" cy="12" r="2"/></g></symbol><symbol viewBox="0 0 45 45" id="lr" xmlns="http://www.w3.org/2000/svg"><g fill="#fff" fill-rule="evenodd" stroke="#000" stroke-width="1.5" stroke-linecap="round" stroke-linejoin="round"><path d="M9 39.3h27v-3H9v3zM12 36.3v-4h21v4H12zM11 14.3v-5h4v2h5v-2h5v2h5v-2h4v5" stroke-linecap="butt"/><path d="M34 14.3l-3 3H14l-3-3"/><path d="M31 17.3v12.5H14V17.3" stroke-linecap="butt" stroke-linejoin="miter"/><path d="M31 29.8l1.5 2.5h-20l1.5-2.5"/><path d="M11 14.3h23" fill="none" stroke-linejoin="miter"/></g></symbol></svg>